<?xml version="1.0" encoding="utf-8"?>
<!-- Generator: Adobe Illustrator 18.0.0, SVG Export Plug-In . SVG Version: 6.00 Build 0)  -->
<!DOCTYPE svg PUBLIC "-//W3C//DTD SVG 1.1//EN" "http://www.w3.org/Graphics/SVG/1.1/DTD/svg11.dtd">
<svg version="1.1" id="Layer_2" xmlns="http://www.w3.org/2000/svg" xmlns:xlink="http://www.w3.org/1999/xlink" x="0px" y="0px"
	 viewBox="0 0 132 132" enable-background="new 0 0 132 132" xml:space="preserve">
<g>
	<path fill="#FFFFFF" stroke="#BA0C2F" stroke-width="3" stroke-miterlimit="10" d="M65.9,129.5c-35,0-63.5-28.5-63.5-63.5
		S30.9,2.5,65.9,2.5c35,0,63.5,28.5,63.5,63.5S100.9,129.5,65.9,129.5z"/>
	<path fill="#BA0C2F" d="M65.9,118.9C36.7,118.9,13,95.2,13,66s23.7-52.9,52.9-52.9c29.2,0,52.9,23.7,52.9,52.9S95,118.9,65.9,118.9
		z"/>
	<path fill="#FFFFFF" d="M30.4,65.4l4,1.6l-3.8,3l-2.9,0L30.4,65.4z M78.8,54.2c0.2-1.1,0.7-2,1.3-2.5c-0.1-0.1-0.3-0.1-0.5-0.1
		c-1,0-2.7,0-4,0c-0.8,0-1.6,0.1-2.3,0.2l2.9,2.4H78.8z M81.3,52.9c-0.1,0-0.5,0.4-0.7,1.2h1.4C81.8,53.4,81.5,52.9,81.3,52.9z
		 M81.6,75c-0.2,0-0.9,0.9-0.9,2.6s0.7,2.6,0.9,2.6c0.2,0,0.9-0.9,0.9-2.6S81.8,75,81.6,75z M80.3,73.7c-0.1,0-0.3-0.1-0.5-0.1
		c-0.1,0-0.2,0-0.4,0l-9.4,6.1c1.2,1.1,3.2,1.9,5.7,1.9c1.3,0,3,0,4,0c0.2,0,0.3,0,0.5-0.1c-0.8-0.7-1.4-2.2-1.4-3.9
		S79.5,74.4,80.3,73.7z M72.1,54.2L55.8,40.9l-6.2,0c0,0,5.3,10.8,6.4,13.3H72.1z M107.1,65.2c-0.3,2.8-7,4.2-10.6,4.2H81.2
		L47.8,91.1l-6.2,0c0,0,8.8-11.1,10.5-13.4c1.5-2.1,4-4.8,4-8.4h-2.8c-7.7,0-18.2-5-24.3-7.3c-3.7-1.4-3.2-5.3,0-5.3H29l-4.3-14.9
		h4.8c0,0,5.7,7.5,7.7,9.8c2.6,3.2,5.9,4.8,10.8,5.1h40.5c2.9,0,5.7,0.5,8.2,1.4c4.6,1.5,7.7,3.5,9.5,5.3
		C106.9,64.1,107.2,64.7,107.1,65.2z M58.1,62.6c0-1.1-0.9-1.9-1.9-1.9c-1.1,0-1.9,0.9-1.9,1.9c0,1.1,0.9,1.9,1.9,1.9
		C57.2,64.5,58.1,63.7,58.1,62.6z M64.6,62.6c0-1.1-0.9-1.9-1.9-1.9c-1.1,0-1.9,0.9-1.9,1.9c0,1.1,0.9,1.9,1.9,1.9
		C63.8,64.5,64.6,63.7,64.6,62.6z M71.2,62.6c0-1.1-0.9-1.9-1.9-1.9c-1.1,0-1.9,0.9-1.9,1.9c0,1.1,0.9,1.9,1.9,1.9
		C70.4,64.5,71.2,63.7,71.2,62.6z M77.8,62.6c0-1.1-0.9-1.9-1.9-1.9c-1.1,0-1.9,0.9-1.9,1.9c0,1.1,0.9,1.9,1.9,1.9
		C76.9,64.5,77.8,63.7,77.8,62.6z M84.4,62.6c0-1.1-0.9-1.9-1.9-1.9c-1.1,0-1.9,0.9-1.9,1.9c0,1.1,0.9,1.9,1.9,1.9
		C83.5,64.5,84.4,63.7,84.4,62.6z M102.1,62.8c-0.9-0.6-2.1-1.2-3.5-1.8c-0.8,0.4-2,0.6-3.6,0.6c-2,0-2.2,3,0.2,3
		C98,64.8,101,63.9,102.1,62.8z"/>
</g>
</svg>
