<?xml version="1.0" encoding="utf-8"?>
<!-- Generator: Adobe Illustrator 18.0.0, SVG Export Plug-In . SVG Version: 6.00 Build 0)  -->
<!DOCTYPE svg PUBLIC "-//W3C//DTD SVG 1.1//EN" "http://www.w3.org/Graphics/SVG/1.1/DTD/svg11.dtd">
<svg version="1.1" id="Layer_2" xmlns="http://www.w3.org/2000/svg" xmlns:xlink="http://www.w3.org/1999/xlink" x="0px" y="0px"
	 viewBox="0 0 132 132" enable-background="new 0 0 132 132" xml:space="preserve">
<g>
	<path fill="#FFFFFF" stroke="#BA0C2F" stroke-width="3" stroke-miterlimit="10" d="M65.9,129.5c-35,0-63.5-28.5-63.5-63.5
		c0-35,28.5-63.5,63.5-63.5c35,0,63.5,28.5,63.5,63.5C129.4,101,100.9,129.5,65.9,129.5z"/>
	<path fill="#BA0C2F" d="M65.9,118.9C36.7,118.9,13,95.2,13,66s23.7-52.9,52.9-52.9c29.2,0,52.9,23.7,52.9,52.9S95,118.9,65.9,118.9
		z"/>
	<g>
		<polygon fill="#FFFFFF" points="34.5,70.2 37.7,68.3 40.9,70.2 40.1,66.6 42.8,64.2 39.2,63.8 37.7,60.4 36.2,63.8 32.6,64.2 
			35.3,66.6 		"/>
		<polygon fill="#FFFFFF" points="48.5,56.9 51.6,55 54.8,56.9 54,53.3 56.8,50.9 53.1,50.5 51.6,47.1 50.2,50.5 46.5,50.9 
			49.2,53.3 		"/>
		<polygon fill="#FFFFFF" points="62.7,44.2 65.9,42.4 69.1,44.2 68.3,40.6 71,38.2 67.4,37.8 65.9,34.5 64.4,37.8 60.7,38.2 
			63.5,40.6 		"/>
		<polygon fill="#FFFFFF" points="77,56.9 80.1,55 83.3,56.9 82.5,53.3 85.3,50.9 81.6,50.5 80.1,47.1 78.7,50.5 75,50.9 77.7,53.3 
					"/>
		<polygon fill="#FFFFFF" points="90.9,70.2 94.1,68.3 97.2,70.2 96.4,66.6 99.2,64.2 95.5,63.8 94.1,60.4 92.6,63.8 88.9,64.2 
			91.7,66.6 		"/>
		<g>
			<path fill="#FFFFFF" d="M60.1,48.1v49.4h3v-5.8c0-1.6,1.3-2.9,2.8-2.9c1.5,0,2.8,1.3,2.8,2.9v5.8h3V48.1H60.1z"/>
			<rect x="63.1" y="76.9" fill="#FFFFFF" width="5.6" height="5.6"/>
			<rect x="63.1" y="63.9" fill="#FFFFFF" width="5.6" height="5.6"/>
			<rect x="63.1" y="50.9" fill="#FFFFFF" width="5.6" height="5.6"/>
			<rect x="32.2" y="74.4" fill="#FFFFFF" width="11" height="23.1"/>
			<rect x="34.9" y="76.9" fill="#FFFFFF" width="5.6" height="5.6"/>
			<polygon fill="#FFFFFF" points="46.1,61.3 46.1,71.5 46.1,97.5 57.1,97.5 57.1,61.3 			"/>
			<rect x="48.9" y="76.9" fill="#FFFFFF" width="5.6" height="5.6"/>
			<rect x="48.9" y="63.9" fill="#FFFFFF" width="5.6" height="5.6"/>
			<polygon fill="#FFFFFF" points="74.6,61.3 74.6,97.5 85.6,97.5 85.6,71.5 85.6,61.3 			"/>
			<rect x="77.3" y="76.9" fill="#FFFFFF" width="5.6" height="5.6"/>
			<rect x="77.3" y="63.9" fill="#FFFFFF" width="5.6" height="5.6"/>
			<rect x="88.5" y="74.4" fill="#FFFFFF" width="11" height="23.1"/>
			<rect x="91.3" y="76.9" fill="#FFFFFF" width="5.6" height="5.6"/>
		</g>
	</g>
</g>
</svg>
