<?xml version="1.0" encoding="utf-8"?>
<!-- Generator: Adobe Illustrator 18.0.0, SVG Export Plug-In . SVG Version: 6.00 Build 0)  -->
<!DOCTYPE svg PUBLIC "-//W3C//DTD SVG 1.1//EN" "http://www.w3.org/Graphics/SVG/1.1/DTD/svg11.dtd">
<svg version="1.1" id="Layer_2" xmlns="http://www.w3.org/2000/svg" xmlns:xlink="http://www.w3.org/1999/xlink" x="0px" y="0px"
	 viewBox="0 0 132 132" enable-background="new 0 0 132 132" xml:space="preserve">
<g>
	<path fill="#FFFFFF" stroke="#BA0C2F" stroke-width="3" stroke-miterlimit="10" d="M66,129.5C31,129.5,2.5,101,2.5,66
		C2.5,31,31,2.5,66,2.5S129.5,31,129.5,66C129.5,101,101,129.5,66,129.5z"/>
	<path fill="#BA0C2F" d="M66,118.9c-29.2,0-52.9-23.7-52.9-52.9c0-29.2,23.7-52.9,52.9-52.9s52.9,23.7,52.9,52.9
		C118.9,95.2,95.2,118.9,66,118.9z"/>
	<path fill="#FFFFFF" d="M69.7,28c1.4,0,2.8,0,4.2,0c0,1.8,0,3.6,0,5.4c0,0.5,0.1,1.1,0.1,1.6c0,0.5,0.3,0.5,0.6,0.7
		c1.7,0.6,3.4,1.2,5,1.9c1.6,0.7,3.1,1.6,4.4,2.9c-1.5,2.1-3,4.1-4.5,6.2c-1.7-1.7-3.4-3.2-5.6-4.3c0,0.4,0,0.7,0,0.9
		c0,5.8,0.1,11.5,0.1,17.3c0,0.6,0.2,0.9,0.7,1.2c3.2,1.5,5.9,3.6,7.9,6.5c2,2.9,2.5,6.2,2.4,9.7c-0.2,6.2-4,11.6-9.8,13.8
		c-0.4,0.2-0.8,0.3-1.3,0.5c0,3.9,0,7.8,0,11.6c-1.5,0-2.9,0-4.4,0c0-3.7,0-7.3,0-10.9c-0.3,0-0.5,0-0.7,0c-1.3,0.1-2.6,0.5-3.9,0.2
		c-0.9-0.2-1,0-1,0.9c0,3.3,0,6.6,0,9.9c-1.4,0-2.9,0-4.3,0c0-1.1,0.1-2.1,0.1-3.2c0-2.8,0-5.5,0-8.3c-2.6-0.5-5-1.2-7.1-2.6
		c-1.9-1.2-3.7-2.6-5.6-3.9c0-0.1,0-0.2,0-0.3c0.7-1.1,1.4-2.2,2-3.4c0.6-0.9,1.1-1.9,1.6-2.9c1.5,1.2,2.8,2.4,4.2,3.4
		c1.4,1,3,1.9,4.6,3c0-0.4,0-0.6,0-0.7c0-7,0-14.1,0-21.1c0-0.5-0.2-0.6-0.6-0.8c-3-1.5-5.8-3.3-7.9-6.1c-3.9-5.2-3.9-12.4,0.1-17.2
		c2-2.4,4.6-4,7.7-4.8c0.5-0.1,0.7-0.4,0.7-0.9c0-0.8,0-1.6,0-2.5c0-1.2,0-2.4,0-3.7c1.5,0,2.8,0,4.3,0c0,2.1,0,4.2,0,6.2
		c1.9,0,3.8,0,5.7,0c0-0.3,0-0.6,0-0.9C69.6,31.7,69.6,29.8,69.7,28z M63.9,86.9c0.2,0,0.4,0,0.7,0c1.4,0,2.7-0.1,4.1,0.1
		c0.6,0.1,0.8,0,0.8-0.7c0-6,0-12,0-17.9c0-0.4-0.1-0.7-0.5-0.8c-1.5-0.6-3-1.2-4.5-1.9c-0.1-0.1-0.3-0.1-0.5-0.1
		C63.9,72.7,63.9,79.7,63.9,86.9z M63.9,57.3c1.8,0.7,3.6,1.4,5.5,2.2c0-6.3,0-12.4,0-18.6c-1.8-0.7-3.6-0.2-5.5-0.4
		C63.9,46.1,63.9,51.6,63.9,57.3z M73.9,85.4c2.6-0.9,4.6-4.6,4.4-8.2c-0.1-3-2.4-6.6-4.4-7C73.9,75.2,73.9,80.3,73.9,85.4z
		 M59.5,41.5c-2.6,0.8-4.2,3-4.4,6c-0.2,2.9,1.9,6.5,4.4,7.6C59.5,50.6,59.5,46,59.5,41.5z"/>
</g>
</svg>
