<?xml version="1.0" encoding="utf-8"?>
<!-- Generator: Adobe Illustrator 18.0.0, SVG Export Plug-In . SVG Version: 6.00 Build 0)  -->
<!DOCTYPE svg PUBLIC "-//W3C//DTD SVG 1.1//EN" "http://www.w3.org/Graphics/SVG/1.1/DTD/svg11.dtd">
<svg version="1.1" xmlns="http://www.w3.org/2000/svg" xmlns:xlink="http://www.w3.org/1999/xlink" x="0px" y="0px"
	 viewBox="0 0 100 88" enable-background="new 0 0 100 88" xml:space="preserve">
<g id="Layer_2" display="none">
	<rect x="0" y="0" display="inline" opacity="0.88" fill="#070203" width="100" height="88"/>
</g>
<g id="cash" display="none">
	<path display="inline" opacity="0.8" fill="#FFFFFF" d="M50.8,11.8c0.8,0,1.5,0,2.3,0c0,1,0,1.9,0,2.9c0,0.3,0.1,0.6,0.1,0.9
		c0,0.3,0.1,0.3,0.3,0.4c0.9,0.3,1.8,0.6,2.7,1c0.9,0.4,1.6,0.9,2.4,1.6c-0.8,1.1-1.6,2.2-2.4,3.3c-0.9-0.9-1.8-1.7-3-2.3
		c0,0.2,0,0.4,0,0.5c0,3.1,0,6.2,0.1,9.3c0,0.3,0.1,0.5,0.4,0.6c1.7,0.8,3.2,1.9,4.3,3.5c1.1,1.6,1.4,3.3,1.3,5.2
		c-0.1,3.4-2.2,6.3-5.3,7.4c-0.2,0.1-0.4,0.2-0.7,0.3c0,2.1,0,4.2,0,6.3c-0.8,0-1.6,0-2.4,0c0-2,0-3.9,0-5.9c-0.2,0-0.3,0-0.4,0
		c-0.7,0.1-1.4,0.3-2.1,0.1c-0.5-0.1-0.5,0-0.5,0.5c0,1.8,0,3.6,0,5.4c-0.8,0-1.6,0-2.3,0c0-0.6,0-1.1,0-1.7c0-1.5,0-3,0-4.5
		c-1.4-0.3-2.7-0.7-3.8-1.4c-1-0.7-2-1.4-3-2.1c0-0.1,0-0.1,0-0.2c0.4-0.6,0.7-1.2,1.1-1.8c0.3-0.5,0.6-1,0.9-1.5
		c0.8,0.6,1.5,1.3,2.3,1.8c0.8,0.6,1.6,1,2.5,1.6c0-0.2,0-0.3,0-0.4c0-3.8,0-7.6,0-11.4c0-0.2-0.1-0.3-0.3-0.4
		c-1.6-0.8-3.1-1.8-4.3-3.3c-2.1-2.8-2.1-6.7,0-9.3c1.1-1.3,2.5-2.2,4.2-2.6c0.3-0.1,0.4-0.2,0.4-0.5c0-0.4,0-0.9,0-1.3
		c0-0.7,0-1.3,0-2c0.8,0,1.5,0,2.3,0c0,1.1,0,2.2,0,3.4c1,0,2,0,3.1,0c0-0.2,0-0.3,0-0.5C50.7,13.8,50.8,12.8,50.8,11.8z M47.7,43.5
		c0.1,0,0.2,0,0.4,0c0.7,0,1.5,0,2.2,0c0.3,0,0.4,0,0.4-0.4c0-3.2,0-6.4,0-9.7c0-0.2-0.1-0.4-0.3-0.4c-0.8-0.3-1.6-0.7-2.4-1
		c-0.1,0-0.1,0-0.3,0C47.7,35.9,47.7,39.7,47.7,43.5z M47.7,27.6c1,0.4,2,0.8,3,1.2c0-3.4,0-6.7,0-10c-1-0.4-2-0.1-3-0.2
		C47.7,21.6,47.7,24.5,47.7,27.6z M53.1,42.7c1.4-0.5,2.5-2.5,2.4-4.4c-0.1-1.6-1.3-3.5-2.4-3.8C53.1,37.2,53.1,40,53.1,42.7z
		 M45.3,19.1c-1.4,0.4-2.2,1.6-2.3,3.2c-0.1,1.6,1,3.5,2.3,4.1C45.3,24,45.3,21.5,45.3,19.1z"/>
	<rect x="0" y="66.2" display="inline" fill="none" width="100" height="20"/>
	
		<text transform="matrix(1 0 0 1 10.9481 75.5479)" display="inline" opacity="0.8" fill="#FFFFFF" font-family="'HelveticaLTStd-BoldObl'" font-size="13">$1,000 Cash</text>
</g>
<g id="party">
	<rect x="0" y="66.2" fill="none" width="100" height="20"/>
	
		<text transform="matrix(1 0 0 1 1.2699 75.5479)" opacity="0.8" fill="#FFFFFF" font-family="'HelveticaLTStd-BoldObl'" font-size="13">Party with Us</text>
	<path opacity="0.8" fill="#FFFFFF" d="M66.7,26.7c-0.8-1.1-2.1-1.3-2.3-1.4l-1.2,0c0.4-2.5,0.7-4.2,0.7-4.3l0.3-1.7h-9.1l1.9-8.3
		L55,10.7l-2,8.7H33.8l0.3,1.7c0,0.2,2.9,16.9,4.1,23.1c0.3,1.8,1,5.2,5.2,5.2h11.3h0c4.2,0,4.8-3.4,5.2-5.2
		c0.1-0.7,0.3-1.5,0.4-2.4h2.2c2.4,0,2.8-1.9,2.9-2.6c0.6-2.6,1.5-7.4,1.9-9.3C67.6,28.3,67.2,27.3,66.7,26.7z M50.9,29H38.4
		c-0.5-2.7-0.9-5.2-1.2-6.7h15.1L50.9,29z M53,29l1.5-6.7h6.3c-0.3,1.5-0.7,4-1.2,6.7H53z M64.9,29.4c-0.3,1.9-1.3,6.6-1.9,9.2
		c-0.1,0.5-0.2,0.6-0.2,0.6c0,0-0.1,0-0.3,0h-1.7c0.6-3.6,1.4-7.9,2-11.5h1.4c0.1,0,0.4,0.1,0.6,0.4C65,28.5,65,29,64.9,29.4z"/>
	<path opacity="0.8" fill="#FFFFFF" d="M66.7,26.7c-0.8-1.1-2.1-1.3-2.3-1.4l-1.2,0c0.4-2.5,0.7-4.2,0.7-4.3l0.3-1.7h-9.1l1.9-8.3
		L55,10.7l-2,8.7H33.8l0.3,1.7c0,0.2,2.9,16.9,4.1,23.1c0.3,1.8,1,5.2,5.2,5.2h11.3h0c4.2,0,4.8-3.4,5.2-5.2
		c0.1-0.7,0.3-1.5,0.4-2.4h2.2c2.4,0,2.8-1.9,2.9-2.6c0.6-2.6,1.5-7.4,1.9-9.3C67.6,28.3,67.2,27.3,66.7,26.7z M50.9,29H38.4
		c-0.5-2.7-0.9-5.2-1.2-6.7h15.1L50.9,29z M53,29l1.5-6.7h6.3c-0.3,1.5-0.7,4-1.2,6.7H53z M64.9,29.4c-0.3,1.9-1.3,6.6-1.9,9.2
		c-0.1,0.5-0.2,0.6-0.2,0.6c0,0-0.1,0-0.3,0h-1.7c0.6-3.6,1.4-7.9,2-11.5h1.4c0.1,0,0.4,0.1,0.6,0.4C65,28.5,65,29,64.9,29.4z"/>
</g>
<g id="Isolation_Mode_copy" display="none">
	<path display="inline" fill="#FFFFFF" d="M50.8,12.8c0.8,0,1.5,0,2.3,0c0,1,0,1.9,0,2.9c0,0.3,0.1,0.6,0.1,0.9
		c0,0.3,0.1,0.3,0.3,0.4c0.9,0.3,1.8,0.6,2.7,1c0.9,0.4,1.6,0.9,2.4,1.6c-0.8,1.1-1.6,2.2-2.4,3.3c-0.9-0.9-1.8-1.7-3-2.3
		c0,0.2,0,0.4,0,0.5c0,3.1,0,6.2,0.1,9.3c0,0.3,0.1,0.5,0.4,0.6c1.7,0.8,3.2,1.9,4.3,3.5c1.1,1.6,1.4,3.3,1.3,5.2
		c-0.1,3.4-2.2,6.3-5.3,7.4c-0.2,0.1-0.4,0.2-0.7,0.3c0,2.1,0,4.2,0,6.3c-0.8,0-1.6,0-2.4,0c0-2,0-3.9,0-5.9c-0.2,0-0.3,0-0.4,0
		c-0.7,0.1-1.4,0.3-2.1,0.1c-0.5-0.1-0.5,0-0.5,0.5c0,1.8,0,3.6,0,5.4c-0.8,0-1.6,0-2.3,0c0-0.6,0-1.1,0-1.7c0-1.5,0-3,0-4.5
		c-1.4-0.3-2.7-0.7-3.8-1.4c-1-0.7-2-1.4-3-2.1c0-0.1,0-0.1,0-0.2c0.4-0.6,0.7-1.2,1.1-1.8c0.3-0.5,0.6-1,0.9-1.5
		c0.8,0.6,1.5,1.3,2.3,1.8c0.8,0.6,1.6,1,2.5,1.6c0-0.2,0-0.3,0-0.4c0-3.8,0-7.6,0-11.4c0-0.2-0.1-0.3-0.3-0.4
		c-1.6-0.8-3.1-1.8-4.3-3.3c-2.1-2.8-2.1-6.7,0-9.3c1.1-1.3,2.5-2.2,4.2-2.6c0.3-0.1,0.4-0.2,0.4-0.5c0-0.4,0-0.9,0-1.3
		c0-0.7,0-1.3,0-2c0.8,0,1.5,0,2.3,0c0,1.1,0,2.2,0,3.4c1,0,2,0,3.1,0c0-0.2,0-0.3,0-0.5C50.7,14.8,50.8,13.8,50.8,12.8z M47.7,44.5
		c0.1,0,0.2,0,0.4,0c0.7,0,1.5,0,2.2,0c0.3,0,0.4,0,0.4-0.4c0-3.2,0-6.4,0-9.7c0-0.2-0.1-0.4-0.3-0.4c-0.8-0.3-1.6-0.7-2.4-1
		c-0.1,0-0.1,0-0.3,0C47.7,36.9,47.7,40.7,47.7,44.5z M47.7,28.6c1,0.4,2,0.8,3,1.2c0-3.4,0-6.7,0-10c-1-0.4-2-0.1-3-0.2
		C47.7,22.6,47.7,25.5,47.7,28.6z M53.1,43.7c1.4-0.5,2.5-2.5,2.4-4.4c-0.1-1.6-1.3-3.5-2.4-3.8C53.1,38.2,53.1,41,53.1,43.7z
		 M45.3,20.1c-1.4,0.4-2.2,1.6-2.3,3.2c-0.1,1.6,1,3.5,2.3,4.1C45.3,25,45.3,22.5,45.3,20.1z"/>
</g>
<g id="Isolation_Mode_copy_2" display="none">
	<path display="inline" fill="#FFFFFF" d="M50.8,8.8c0.8,0,1.5,0,2.3,0c0,1,0,1.9,0,2.9c0,0.3,0.1,0.6,0.1,0.9
		c0,0.3,0.1,0.3,0.3,0.4c0.9,0.3,1.8,0.6,2.7,1c0.9,0.4,1.6,0.9,2.4,1.6c-0.8,1.1-1.6,2.2-2.4,3.3c-0.9-0.9-1.8-1.7-3-2.3
		c0,0.2,0,0.4,0,0.5c0,3.1,0,6.2,0.1,9.3c0,0.3,0.1,0.5,0.4,0.6c1.7,0.8,3.2,1.9,4.3,3.5c1.1,1.6,1.4,3.3,1.3,5.2
		c-0.1,3.4-2.2,6.3-5.3,7.4c-0.2,0.1-0.4,0.2-0.7,0.3c0,2.1,0,4.2,0,6.3c-0.8,0-1.6,0-2.4,0c0-2,0-3.9,0-5.9c-0.2,0-0.3,0-0.4,0
		c-0.7,0.1-1.4,0.3-2.1,0.1c-0.5-0.1-0.5,0-0.5,0.5c0,1.8,0,3.6,0,5.4c-0.8,0-1.6,0-2.3,0c0-0.6,0-1.1,0-1.7c0-1.5,0-3,0-4.5
		c-1.4-0.3-2.7-0.7-3.8-1.4c-1-0.7-2-1.4-3-2.1c0-0.1,0-0.1,0-0.2c0.4-0.6,0.7-1.2,1.1-1.8c0.3-0.5,0.6-1,0.9-1.5
		c0.8,0.6,1.5,1.3,2.3,1.8c0.8,0.6,1.6,1,2.5,1.6c0-0.2,0-0.3,0-0.4c0-3.8,0-7.6,0-11.4c0-0.2-0.1-0.3-0.3-0.4
		c-1.6-0.8-3.1-1.8-4.3-3.3c-2.1-2.8-2.1-6.7,0-9.3c1.1-1.3,2.5-2.2,4.2-2.6c0.3-0.1,0.4-0.2,0.4-0.5c0-0.4,0-0.9,0-1.3
		c0-0.7,0-1.3,0-2c0.8,0,1.5,0,2.3,0c0,1.1,0,2.2,0,3.4c1,0,2,0,3.1,0c0-0.2,0-0.3,0-0.5C50.7,10.8,50.8,9.8,50.8,8.8z M47.7,40.5
		c0.1,0,0.2,0,0.4,0c0.7,0,1.5,0,2.2,0c0.3,0,0.4,0,0.4-0.4c0-3.2,0-6.4,0-9.7c0-0.2-0.1-0.4-0.3-0.4c-0.8-0.3-1.6-0.7-2.4-1
		c-0.1,0-0.1,0-0.3,0C47.7,32.9,47.7,36.7,47.7,40.5z M47.7,24.6c1,0.4,2,0.8,3,1.2c0-3.4,0-6.7,0-10c-1-0.4-2-0.1-3-0.2
		C47.7,18.6,47.7,21.5,47.7,24.6z M53.1,39.7c1.4-0.5,2.5-2.5,2.4-4.4c-0.1-1.6-1.3-3.5-2.4-3.8C53.1,34.2,53.1,37,53.1,39.7z
		 M45.3,16.1c-1.4,0.4-2.2,1.6-2.3,3.2c-0.1,1.6,1,3.5,2.3,4.1C45.3,21,45.3,18.5,45.3,16.1z"/>
	<rect x="0" y="64.2" display="inline" fill="none" width="100" height="20"/>
	<text transform="matrix(1 0 0 1 2.8324 75.7012)" display="inline"><tspan x="0" y="0" fill="#FFFFFF" font-family="'HelveticaLTStd-BoldObl'" font-size="16">$</tspan><tspan x="8.8" y="0" fill="#FFFFFF" font-family="'HelveticaLTStd-BoldObl'" font-size="16" letter-spacing="-1">1</tspan><tspan x="16.2" y="0" fill="#FFFFFF" font-family="'HelveticaLTStd-BoldObl'" font-size="16">,000</tspan><tspan x="47" y="0" fill="#FFFFFF" font-family="'HelveticaLTStd-BoldObl'" font-size="16"> </tspan><tspan x="51" y="0" fill="#FFFFFF" font-family="'HelveticaLTStd-BoldObl'" font-size="16">Cash</tspan></text>
</g>
<g id="Layer_3" display="none">
</g>
<g id="plane" display="none">
	<path display="inline" opacity="0.88" fill="#FFFFFF" d="M25.6,34.7l2.8,1.1l-2.7,2.1h-2L25.6,34.7z M59.4,26.8
		c0.1-0.8,0.5-1.4,0.9-1.7C60.2,25,60.1,25,60,25c-0.7,0-1.9,0-2.8,0c-0.6,0-1.1,0.1-1.6,0.1l2,1.7C57.6,26.8,59.4,26.8,59.4,26.8z
		 M61.1,25.9c-0.1,0-0.3,0.3-0.5,0.8h1C61.5,26.3,61.3,25.9,61.1,25.9z M61.4,41.4c-0.1,0-0.6,0.6-0.6,1.8c0,1.2,0.5,1.8,0.6,1.8
		c0.1,0,0.6-0.6,0.6-1.8C62,42,61.5,41.4,61.4,41.4z M60.4,40.5c-0.1,0-0.2-0.1-0.3-0.1c-0.1,0-0.1,0-0.3,0l-6.6,4.3
		c0.8,0.8,2.2,1.3,4,1.3c0.9,0,2.1,0,2.8,0c0.1,0,0.2,0,0.3-0.1c-0.6-0.5-1-1.5-1-2.7S59.9,41,60.4,40.5z M54.7,26.8l-11.4-9.3H39
		c0,0,3.7,7.5,4.5,9.3H54.7z M79.2,34.5c-0.2,2-4.9,2.9-7.4,2.9H61.1L37.7,52.6h-4.3c0,0,6.1-7.8,7.3-9.4c1-1.5,2.8-3.4,2.8-5.9h-2
		c-5.4,0-12.7-3.5-17-5.1c-2.6-1-2.2-3.7,0-3.7l0,0l-3-10.4h3.4c0,0,4,5.2,5.4,6.8c1.8,2.2,4.1,3.4,7.5,3.6h28.3c2,0,4,0.3,5.7,1
		c3.2,1,5.4,2.4,6.6,3.7C79,33.8,79.2,34.2,79.2,34.5z M44.9,32.7c0-0.8-0.6-1.3-1.3-1.3c-0.8,0-1.3,0.6-1.3,1.3
		c0,0.8,0.6,1.3,1.3,1.3S44.9,33.5,44.9,32.7z M49.5,32.7c0-0.8-0.6-1.3-1.3-1.3c-0.8,0-1.3,0.6-1.3,1.3c0,0.8,0.6,1.3,1.3,1.3
		C48.9,34,49.5,33.5,49.5,32.7z M54.1,32.7c0-0.8-0.6-1.3-1.3-1.3c-0.8,0-1.3,0.6-1.3,1.3c0,0.8,0.6,1.3,1.3,1.3
		C53.5,34,54.1,33.5,54.1,32.7z M58.7,32.7c0-0.8-0.6-1.3-1.3-1.3c-0.8,0-1.3,0.6-1.3,1.3c0,0.8,0.6,1.3,1.3,1.3
		S58.7,33.5,58.7,32.7z M63.3,32.7c0-0.8-0.6-1.3-1.3-1.3c-0.8,0-1.3,0.6-1.3,1.3c0,0.8,0.6,1.3,1.3,1.3S63.3,33.5,63.3,32.7z
		 M75.7,32.8c-0.6-0.4-1.5-0.8-2.4-1.3c-0.6,0.3-1.4,0.4-2.5,0.4c-1.4,0-1.5,2.1,0.1,2.1C72.8,34.2,74.9,33.6,75.7,32.8z"/>
	<rect x="0" y="66.2" display="inline" fill="none" width="100" height="20"/>
	
		<text transform="matrix(1 0 0 1 22.3558 75.5479)" display="inline" opacity="0.88" fill="#FFFFFF" font-family="'HelveticaLTStd-BoldObl'" font-size="13">airfare</text>
</g>
<g id="Layer_5" display="none">
</g>
</svg>
