<?xml version="1.0" encoding="utf-8"?>
<!-- Generator: Adobe Illustrator 18.0.0, SVG Export Plug-In . SVG Version: 6.00 Build 0)  -->
<!DOCTYPE svg PUBLIC "-//W3C//DTD SVG 1.0//EN" "http://www.w3.org/TR/2001/REC-SVG-20010904/DTD/svg10.dtd">
<svg version="1.0" id="cash" xmlns="http://www.w3.org/2000/svg" xmlns:xlink="http://www.w3.org/1999/xlink" x="0px" y="0px"
	 viewBox="0 0 100 88" enable-background="new 0 0 100 88" xml:space="preserve">
<path opacity="0.8" fill="#FFFFFF" d="M50.8,11.8c0.8,0,1.5,0,2.3,0c0,1,0,1.9,0,2.9c0,0.3,0.1,0.6,0.1,0.9c0,0.3,0.1,0.3,0.3,0.4
	c0.9,0.3,1.8,0.6,2.7,1c0.9,0.4,1.6,0.9,2.4,1.6c-0.8,1.1-1.6,2.2-2.4,3.3c-0.9-0.9-1.8-1.7-3-2.3c0,0.2,0,0.4,0,0.5
	c0,3.1,0,6.2,0.1,9.3c0,0.3,0.1,0.5,0.4,0.6c1.7,0.8,3.2,1.9,4.3,3.5c1.1,1.6,1.4,3.3,1.3,5.2c-0.1,3.4-2.2,6.3-5.3,7.4
	c-0.2,0.1-0.4,0.2-0.7,0.3c0,2.1,0,4.2,0,6.3c-0.8,0-1.6,0-2.4,0c0-2,0-3.9,0-5.9c-0.2,0-0.3,0-0.4,0c-0.7,0.1-1.4,0.3-2.1,0.1
	c-0.5-0.1-0.5,0-0.5,0.5c0,1.8,0,3.6,0,5.4c-0.8,0-1.6,0-2.3,0c0-0.6,0-1.1,0-1.7c0-1.5,0-3,0-4.5c-1.4-0.3-2.7-0.7-3.8-1.4
	c-1-0.7-2-1.4-3-2.1c0-0.1,0-0.1,0-0.2c0.4-0.6,0.7-1.2,1.1-1.8c0.3-0.5,0.6-1,0.9-1.5c0.8,0.6,1.5,1.3,2.3,1.8
	c0.8,0.6,1.6,1,2.5,1.6c0-0.2,0-0.3,0-0.4c0-3.8,0-7.6,0-11.4c0-0.2-0.1-0.3-0.3-0.4c-1.6-0.8-3.1-1.8-4.3-3.3
	c-2.1-2.8-2.1-6.7,0-9.3c1.1-1.3,2.5-2.2,4.2-2.6c0.3-0.1,0.4-0.2,0.4-0.5c0-0.4,0-0.9,0-1.3c0-0.7,0-1.3,0-2c0.8,0,1.5,0,2.3,0
	c0,1.1,0,2.2,0,3.4c1,0,2,0,3.1,0c0-0.2,0-0.3,0-0.5C50.7,13.8,50.8,12.8,50.8,11.8z M47.7,43.5c0.1,0,0.2,0,0.4,0
	c0.7,0,1.5,0,2.2,0c0.3,0,0.4,0,0.4-0.4c0-3.2,0-6.4,0-9.7c0-0.2-0.1-0.4-0.3-0.4c-0.8-0.3-1.6-0.7-2.4-1c-0.1,0-0.1,0-0.3,0
	C47.7,35.9,47.7,39.7,47.7,43.5z M47.7,27.6c1,0.4,2,0.8,3,1.2c0-3.4,0-6.7,0-10c-1-0.4-2-0.1-3-0.2C47.7,21.6,47.7,24.5,47.7,27.6z
	 M53.1,42.7c1.4-0.5,2.5-2.5,2.4-4.4c-0.1-1.6-1.3-3.5-2.4-3.8C53.1,37.2,53.1,40,53.1,42.7z M45.3,19.1c-1.4,0.4-2.2,1.6-2.3,3.2
	c-0.1,1.6,1,3.5,2.3,4.1C45.3,24,45.3,21.5,45.3,19.1z"/>
<rect x="0" y="66.2" fill="none" width="100" height="20"/>
<text transform="matrix(1 0 0 1 10.9481 75.5479)" opacity="0.8" fill="#FFFFFF" font-family="'HelveticaLTStd-BoldObl'" font-size="13">$1,000 Cash</text>
</svg>
