<?xml version="1.0" encoding="utf-8"?>
<!-- Generator: Adobe Illustrator 18.0.0, SVG Export Plug-In . SVG Version: 6.00 Build 0)  -->
<!DOCTYPE svg PUBLIC "-//W3C//DTD SVG 1.1//EN" "http://www.w3.org/Graphics/SVG/1.1/DTD/svg11.dtd">
<svg version="1.1" id="Layer_1" xmlns="http://www.w3.org/2000/svg" xmlns:xlink="http://www.w3.org/1999/xlink" x="0px" y="0px"
	 viewBox="0 0 128 128" enable-background="new 0 0 128 128" xml:space="preserve">
<g>
	<path fill="#B91F32" stroke="#FFFFFF" stroke-width="6" stroke-miterlimit="10" d="M64.1,126C30.2,126,2.5,98.3,2.5,64.4
		S30.2,2.8,64.1,2.8s61.6,27.6,61.6,61.6C125.8,98.3,98.1,126,64.1,126z"/>
	<g>
		<path fill="#FFFFFF" d="M98.7,63C98,67,96.1,76.5,95,81.9c-0.4,1.6-1.1,5.3-6,5.3h-5.3c0.2-1.6,0.6-3.3,0.9-5H89
			c0.5,0,0.6-0.1,0.6-0.1s0.1-0.2,0.4-1.2c1.1-5.2,3-14.7,3.8-18.6c0.1-0.7,0.2-1.8-0.2-2.4c-0.4-0.5-0.9-0.6-1.1-0.7h-3.8
			c0.4-1.8,0.6-3.4,0.9-5h3.4c0.2,0,2.9,0.5,4.5,2.8C98.4,57.9,99.3,59.9,98.7,63z"/>
		<g>
			<path fill="#FFFFFF" d="M31.3,42l0.6,3.4c0,0.4,5.8,34,8.3,46.4c0.7,3.6,1.9,10.5,10.5,10.6h22.9l0,0c8.5,0,9.7-6.9,10.5-10.6
				c2.3-12.4,8.1-46.1,8.3-46.4l0.6-3.4H31.3z"/>
			<path fill="#B91F32" d="M83.3,61.3H40.5c-1-5.5-1.8-10.5-2.3-13.5h47.5C85.1,51,84.3,55.8,83.3,61.3z"/>
			<polygon fill="#FFFFFF" points="65.2,63.5 73.9,24.4 78.1,25.3 69.6,63.5 			"/>
		</g>
	</g>
</g>
</svg>
