<?xml version="1.0" encoding="utf-8"?>
<!-- Generator: Adobe Illustrator 18.0.0, SVG Export Plug-In . SVG Version: 6.00 Build 0)  -->
<!DOCTYPE svg PUBLIC "-//W3C//DTD SVG 1.1//EN" "http://www.w3.org/Graphics/SVG/1.1/DTD/svg11.dtd">
<svg version="1.1" id="LighBG" xmlns="http://www.w3.org/2000/svg" xmlns:xlink="http://www.w3.org/1999/xlink" x="0px" y="0px"
	 viewBox="0 0 392.5 86.8" enable-background="new 0 0 392.5 86.8" xml:space="preserve">
<g>
	<g>
		<path fill="#FFFFFF" d="M86.7,50.1h10.1v2.8c0,3.3,4.4,4.9,9.3,4.9c4.8,0,8.1-1.7,8.1-4.8c0-4-4.5-5-10.8-7.4
			c-7-2.4-15-5.7-15-14.7c0-10.1,10.1-13.6,18.7-13.6c6.9,0,17.1,2.7,17.1,9.9v6.1H114v-2.7c0-2.4-2.8-3.9-7-3.9
			c-3.7,0-6.9,1.3-6.9,4.3c0,3.9,4.7,5.5,10,7.1c7.3,2.3,15.8,5.3,15.8,14.6c0,9.6-9.1,14.4-20,14.4c-8.7,0-19.3-3.7-19.3-11.5V50.1
			z"/>
		<path fill="#FFFFFF" d="M126.1,57.1h6.9V8.7h-7.4v-8.8h19.2v23.1c0,2.3-0.3,4-0.3,4h0.2c2.3-4.6,8.2-9.6,16.4-9.6
			c10.5,0,16.6,5.5,16.6,18.1v21.7h6.9V66h-18.7V37.8c0-5.8-1.5-9.7-7.5-9.7c-8.4,0-13.6,7.3-13.6,16v12.9h6.8V66h-25.5V57.1z"/>
		<path fill="#FFFFFF" d="M181.6,57.1h6.9V27.3h-7.4v-8.8h19.2v38.7h6.8V66h-25.5V57.1z M188.4-0.2h11.9v10.5h-11.9V-0.2z"/>
		<path fill="#FFFFFF" d="M204.9,57.1h6.9V27.3h-7.4v-8.8h7.4v-2.1C211.8,1,224.1-1,230.4-1c2.8,0,4.8,0.4,4.8,0.4v9.5
			c0,0-1.2-0.3-3.6-0.3c-2.7,0-8,0.6-8,7.5v2.4h10.7v8.8h-10.7v29.8h8V66h-26.7V57.1z"/>
		<path fill="#FFFFFF" d="M239.2,27.3h-7.3v-8.8h7.6V5.5H251v12.9h10.8v8.8H251v20c0,8.1,6.1,9.2,9.5,9.2c1.3,0,2.1-0.1,2.1-0.1v9.7
			c0,0-1.5,0.3-3.6,0.3c-6.7,0-19.8-2-19.8-17.9V27.3z"/>
		<path fill="#FFFFFF" d="M284.1,75.8c7.3,0,13.4-3.2,13.4-11.9v-3c0-1.1,0.2-2.5,0.2-2.5h-0.2c-2.8,4.2-6.9,6.6-13.2,6.6
			C270.6,65,263,54,263,41c0-13,7.4-23.7,21-23.7c5.7,0,12.1,2.1,14.7,7.2h0.2c0,0-0.2-0.7-0.2-1.6c0-2.5,1.7-4.5,5.4-4.5h11.8v8.8
			h-4.6c-1.2,0-2,0.7-2,1.9v33.9c0,16.3-12.7,22.4-25.1,22.4c-6,0-12.3-1.7-17-4.1l3.6-8.8C271,72.7,276.8,75.8,284.1,75.8z
			 M297.8,41.1c0-10.8-5.4-13.7-11.7-13.7c-7.2,0-11.2,5.2-11.2,13.2c0,8.3,4.3,14.4,11.9,14.4C292.4,55.1,297.8,51.8,297.8,41.1z"
			/>
		<path fill="#FFFFFF" d="M313.7,57.1h6.9V27.3h-7.4v-8.8h19.2v38.7h6.8V66h-25.5V57.1z M320.5-0.2h11.9v10.5h-11.9V-0.2z"/>
		<path fill="#FFFFFF" d="M360.6,75.8c7.3,0,13.4-3.2,13.4-11.9v-3c0-1.1,0.2-2.5,0.2-2.5h-0.2c-2.8,4.2-6.9,6.6-13.2,6.6
			c-13.7,0-21.3-11-21.3-24c0-13,7.4-23.7,21-23.7c5.7,0,12.1,2.1,14.7,7.2h0.2c0,0-0.2-0.7-0.2-1.6c0-2.5,1.7-4.5,5.4-4.5h11.8v8.8
			h-4.6c-1.2,0-2,0.7-2,1.9v33.9c0,16.3-12.7,22.4-25.1,22.4c-6,0-12.3-1.7-17-4.1l3.6-8.8C347.5,72.7,353.4,75.8,360.6,75.8z
			 M374.3,41.1c0-10.8-5.4-13.7-11.7-13.7c-7.2,0-11.2,5.2-11.2,13.2c0,8.3,4.3,14.4,11.9,14.4C368.9,55.1,374.3,51.8,374.3,41.1z"
			/>
	</g>
	<g>
		<path fill="#ADD136" d="M0-0.2v66.5h66.5V-0.2H0z M52.8,47v14.4L5.1,54.7V47h33.3L45,25.3h7.8V47z M61.2,19.3H27.9l-6.6,22.1h-7.8
			V19.3V4.9l47.7,6.6V19.3z"/>
	</g>
</g>
</svg>
