<?xml version="1.0" encoding="utf-8"?>
<!-- Generator: Adobe Illustrator 18.0.0, SVG Export Plug-In . SVG Version: 6.00 Build 0)  -->
<!DOCTYPE svg PUBLIC "-//W3C//DTD SVG 1.0//EN" "http://www.w3.org/TR/2001/REC-SVG-20010904/DTD/svg10.dtd">
<svg version="1.0" id="Layer_1" xmlns="http://www.w3.org/2000/svg" xmlns:xlink="http://www.w3.org/1999/xlink" x="0px" y="0px"
	 viewBox="0 0 268 106" enable-background="new 0 0 268 106" xml:space="preserve">
<g>
	<g>
		<path fill="#FFFFFF" d="M57.4,38.5h6.7v1.9c0,2.2,2.9,3.3,6.2,3.3c3.1,0,5.4-1.1,5.4-3.2c0-2.7-3-3.3-7.2-4.9
			c-4.6-1.6-9.9-3.8-9.9-9.7c0-6.7,6.7-9,12.4-9c4.6,0,11.4,1.8,11.4,6.5v4h-6.7v-1.8c0-1.6-1.9-2.6-4.6-2.6c-2.5,0-4.6,0.9-4.6,2.8
			c0,2.6,3.1,3.6,6.6,4.7c4.8,1.5,10.5,3.5,10.5,9.7c0,6.4-6,9.6-13.3,9.6c-5.7,0-12.8-2.5-12.8-7.6V38.5z"/>
		<path fill="#FFFFFF" d="M83.6,43.1h4.6V11h-4.9V5.1H96v15.3c0,1.5-0.2,2.7-0.2,2.7h0.1c1.5-3,5.4-6.4,10.9-6.4c7,0,11,3.6,11,12
			v14.4h4.6V49h-12.4V30.3c0-3.8-1-6.4-4.9-6.4c-5.6,0-9,4.8-9,10.6v8.6h4.5V49H83.6V43.1z"/>
		<path fill="#FFFFFF" d="M120.3,43.1h4.6V23.3H120v-5.9h12.7v25.6h4.5V49h-16.9V43.1z M124.8,5.1h7.9v7h-7.9V5.1z"/>
		<path fill="#FFFFFF" d="M135.8,43.1h4.6V23.3h-4.9v-5.9h4.9v-1.4c0-10.2,8.1-11.5,12.3-11.5c1.9,0,3.2,0.2,3.2,0.2v6.3
			c0,0-0.8-0.2-2.4-0.2c-1.8,0-5.3,0.4-5.3,4.9v1.6h7.1v5.9h-7.1v19.7h5.3V49h-17.7V43.1z"/>
		<path fill="#FFFFFF" d="M158.5,23.3h-4.8v-5.9h5.1V8.9h7.6v8.6h7.2v5.9h-7.2v13.3c0,5.4,4.1,6.1,6.3,6.1c0.9,0,1.4-0.1,1.4-0.1
			v6.4c0,0-1,0.2-2.4,0.2c-4.4,0-13.1-1.3-13.1-11.8V23.3z"/>
		<path fill="#FFFFFF" d="M188.2,55.5c4.8,0,8.9-2.1,8.9-7.9v-2c0-0.7,0.1-1.7,0.1-1.7h-0.1c-1.9,2.8-4.6,4.4-8.8,4.4
			c-9.1,0-14.1-7.3-14.1-15.9c0-8.6,4.9-15.7,13.9-15.7c3.8,0,8,1.4,9.7,4.8h0.1c0,0-0.1-0.4-0.1-1c0-1.7,1.1-3,3.6-3h7.8v5.9h-3
			c-0.8,0-1.4,0.4-1.4,1.2V47c0,10.8-8.4,14.9-16.6,14.9c-3.9,0-8.1-1.1-11.2-2.7l2.4-5.8C179.5,53.4,183.4,55.5,188.2,55.5z
			 M197.3,32.5c0-7.2-3.6-9.1-7.8-9.1c-4.8,0-7.4,3.5-7.4,8.8c0,5.5,2.8,9.6,7.9,9.6C193.7,41.7,197.3,39.6,197.3,32.5z"/>
		<path fill="#FFFFFF" d="M207.8,43.1h4.6V23.3h-4.9v-5.9h12.7v25.6h4.5V49h-16.9V43.1z M212.3,5.1h7.9v7h-7.9V5.1z"/>
		<path fill="#FFFFFF" d="M238.9,55.5c4.8,0,8.9-2.1,8.9-7.9v-2c0-0.7,0.1-1.7,0.1-1.7h-0.1c-1.9,2.8-4.6,4.4-8.8,4.4
			c-9.1,0-14.1-7.3-14.1-15.9c0-8.6,4.9-15.7,13.9-15.7c3.8,0,8,1.4,9.7,4.8h0.1c0,0-0.1-0.4-0.1-1c0-1.7,1.1-3,3.6-3h7.8v5.9h-3
			c-0.8,0-1.4,0.4-1.4,1.2V47c0,10.8-8.4,14.9-16.6,14.9c-3.9,0-8.1-1.1-11.2-2.7l2.4-5.8C230.2,53.4,234.1,55.5,238.9,55.5z
			 M248,32.5c0-7.2-3.6-9.1-7.8-9.1c-4.8,0-7.4,3.5-7.4,8.8c0,5.5,2.8,9.6,7.9,9.6C244.4,41.7,248,39.6,248,32.5z"/>
	</g>
	<g>
		<path fill="#ADD036" d="M0,5.2v44.1h44.1V5.2H0z M35,36.4v9.5L3.4,41.5v-5.1h22L29.8,22H35V36.4z M40.6,18h-22l-4.4,14.6H9V18V8.5
			l31.6,4.4V18z"/>
	</g>
</g>
<rect x="67.3" y="73.2" fill="none" width="143" height="32.8"/>
<text transform="matrix(1 0 0 1 106.6759 85.9239)" opacity="0.75" fill="#FFFFFF" font-family="'HelveticaLTStd-BoldCond'" font-size="17">presents</text>
</svg>
