<?xml version="1.0" encoding="utf-8"?>
<!-- Generator: Adobe Illustrator 18.0.0, SVG Export Plug-In . SVG Version: 6.00 Build 0)  -->
<!DOCTYPE svg PUBLIC "-//W3C//DTD SVG 1.0//EN" "http://www.w3.org/TR/2001/REC-SVG-20010904/DTD/svg10.dtd">
<svg version="1.0" id="Layer_1" xmlns="http://www.w3.org/2000/svg" xmlns:xlink="http://www.w3.org/1999/xlink" x="0px" y="0px"
	 viewBox="0 0 202 49.5" enable-background="new 0 0 202 49.5" xml:space="preserve">
<g>
	<g>
		<path fill="#FFFFFF" d="M44.9,28.7h5.1v1.4c0,1.7,2.2,2.5,4.7,2.5c2.4,0,4.1-0.9,4.1-2.5c0-2-2.3-2.6-5.5-3.7
			c-3.6-1.2-7.6-2.9-7.6-7.5c0-5.1,5.1-6.9,9.5-6.9c3.5,0,8.7,1.4,8.7,5v3.1h-5.2v-1.4c0-1.2-1.4-2-3.6-2c-1.9,0-3.5,0.7-3.5,2.2
			c0,2,2.4,2.8,5.1,3.6c3.7,1.2,8.1,2.7,8.1,7.5c0,4.9-4.7,7.4-10.2,7.4c-4.4,0-9.8-1.9-9.8-5.8V28.7z"/>
		<path fill="#FFFFFF" d="M65.1,32.2h3.5V7.5h-3.7V3h9.8v11.8c0,1.2-0.1,2-0.1,2h0.1c1.2-2.3,4.2-4.9,8.4-4.9c5.4,0,8.4,2.8,8.4,9.2
			v11.1h3.5v4.5h-9.5V22.4c0-2.9-0.8-4.9-3.8-4.9c-4.3,0-6.9,3.7-6.9,8.2v6.6h3.5v4.5h-13V32.2z"/>
		<path fill="#FFFFFF" d="M93.3,32.2h3.5V17h-3.7v-4.5h9.8v19.7h3.5v4.5h-13V32.2z M96.8,3h6.1v5.4h-6.1V3z"/>
		<path fill="#FFFFFF" d="M105.2,32.2h3.5V17H105v-4.5h3.7v-1.1c0-7.8,6.3-8.8,9.5-8.8c1.4,0,2.5,0.2,2.5,0.2v4.8
			c0,0-0.6-0.1-1.9-0.1c-1.4,0-4.1,0.3-4.1,3.8v1.2h5.5V17h-5.5v15.2h4.1v4.5h-13.6V32.2z"/>
		<path fill="#FFFFFF" d="M122.7,17H119v-4.5h3.9V5.9h5.8v6.6h5.5V17h-5.5v10.2c0,4.1,3.1,4.7,4.8,4.7c0.7,0,1.1,0,1.1,0v4.9
			c0,0-0.8,0.1-1.9,0.1c-3.4,0-10.1-1-10.1-9.1V17z"/>
		<path fill="#FFFFFF" d="M145.5,41.8c3.7,0,6.8-1.6,6.8-6.1v-1.5c0-0.6,0.1-1.3,0.1-1.3h-0.1c-1.4,2.1-3.5,3.4-6.7,3.4
			c-7,0-10.9-5.6-10.9-12.2c0-6.6,3.7-12.1,10.7-12.1c2.9,0,6.2,1.1,7.5,3.7h0.1c0,0-0.1-0.3-0.1-0.8c0-1.3,0.9-2.3,2.8-2.3h6V17
			h-2.3c-0.6,0-1,0.3-1,0.9v17.3c0,8.3-6.5,11.4-12.8,11.4c-3,0-6.3-0.9-8.6-2.1l1.9-4.5C138.8,40.1,141.8,41.8,145.5,41.8z
			 M152.5,24.1c0-5.5-2.8-7-6-7c-3.7,0-5.7,2.7-5.7,6.7c0,4.2,2.2,7.4,6.1,7.4C149.8,31.2,152.5,29.5,152.5,24.1z"/>
		<path fill="#FFFFFF" d="M160.6,32.2h3.5V17h-3.7v-4.5h9.8v19.7h3.5v4.5h-13V32.2z M164.1,3h6.1v5.4h-6.1V3z"/>
		<path fill="#FFFFFF" d="M184.5,41.8c3.7,0,6.8-1.6,6.8-6.1v-1.5c0-0.6,0.1-1.3,0.1-1.3h-0.1c-1.4,2.1-3.5,3.4-6.7,3.4
			c-7,0-10.9-5.6-10.9-12.2c0-6.6,3.7-12.1,10.7-12.1c2.9,0,6.2,1.1,7.5,3.7h0.1c0,0-0.1-0.3-0.1-0.8c0-1.3,0.9-2.3,2.8-2.3h6V17
			h-2.3c-0.6,0-1,0.3-1,0.9v17.3c0,8.3-6.5,11.4-12.8,11.4c-3,0-6.3-0.9-8.6-2.1l1.9-4.5C177.8,40.1,180.8,41.8,184.5,41.8z
			 M191.5,24.1c0-5.5-2.8-7-6-7c-3.7,0-5.7,2.7-5.7,6.7c0,4.2,2.2,7.4,6.1,7.4C188.8,31.2,191.5,29.5,191.5,24.1z"/>
	</g>
	<g>
		<path fill="#ADD036" d="M0.8,3v33.9h33.9V3H0.8z M27.7,27v7.3L3.4,31v-4h17l3.4-11h3.9V27z M32,12.9H15l-3.4,11.3H7.7V12.9V5.6
			L32,9V12.9z"/>
	</g>
</g>
</svg>
